<svg width="87" height="70" viewBox="0 0 87 70" fill="none" xmlns="http://www.w3.org/2000/svg">
<rect width="87" height="69.5" rx="12" fill="#EDEAE0" fill-opacity="0.1"/>
<path d="M16 53.5V16H21V41H41V21H61C63.75 21 66.1042 21.9792 68.0625 23.9375C70.0208 25.8958 71 28.25 71 31V53.5H66V46H21V53.5H16ZM31 38.5C28.9167 38.5 27.1458 37.7708 25.6875 36.3125C24.2292 34.8542 23.5 33.0833 23.5 31C23.5 28.9167 24.2292 27.1458 25.6875 25.6875C27.1458 24.2292 28.9167 23.5 31 23.5C33.0833 23.5 34.8542 24.2292 36.3125 25.6875C37.7708 27.1458 38.5 28.9167 38.5 31C38.5 33.0833 37.7708 34.8542 36.3125 36.3125C34.8542 37.7708 33.0833 38.5 31 38.5ZM46 41H66V31C66 29.625 65.5104 28.4479 64.5312 27.4688C63.5521 26.4896 62.375 26 61 26H46V41ZM31 33.5C31.7083 33.5 32.3021 33.2604 32.7812 32.7812C33.2604 32.3021 33.5 31.7083 33.5 31C33.5 30.2917 33.2604 29.6979 32.7812 29.2188C32.3021 28.7396 31.7083 28.5 31 28.5C30.2917 28.5 29.6979 28.7396 29.2188 29.2188C28.7396 29.6979 28.5 30.2917 28.5 31C28.5 31.7083 28.7396 32.3021 29.2188 32.7812C29.6979 33.2604 30.2917 33.5 31 33.5ZM46 26V41V26Z" fill="#EDEAE0"/>
</svg>
